%TF.GenerationSoftware,KiCad,Pcbnew,7.0.7*%
%TF.CreationDate,2025-08-28T15:07:29+07:00*%
%TF.ProjectId,uno-r4-shield-template,756e6f2d-7234-42d7-9368-69656c642d74,rev?*%
%TF.SameCoordinates,Original*%
%TF.FileFunction,Legend,Bot*%
%TF.FilePolarity,Positive*%
%FSLAX46Y46*%
G04 Gerber Fmt 4.6, Leading zero omitted, Abs format (unit mm)*
G04 Created by KiCad (PCBNEW 7.0.7) date 2025-08-28 15:07:29*
%MOMM*%
%LPD*%
G01*
G04 APERTURE LIST*
%ADD10C,0.120000*%
G04 APERTURE END LIST*
D10*
%TO.C,J1*%
X185471733Y-106135000D02*
X185471733Y-108795000D01*
X167631733Y-106135000D02*
X185471733Y-106135000D01*
X167631733Y-106135000D02*
X167631733Y-108795000D01*
X166361733Y-106135000D02*
X165031733Y-106135000D01*
X165031733Y-106135000D02*
X165031733Y-107465000D01*
X167631733Y-108795000D02*
X185471733Y-108795000D01*
%TO.C,J4*%
X155901733Y-60530000D02*
X155901733Y-57870000D01*
X178821733Y-60530000D02*
X155901733Y-60530000D01*
X178821733Y-60530000D02*
X178821733Y-57870000D01*
X180091733Y-60530000D02*
X181421733Y-60530000D01*
X181421733Y-60530000D02*
X181421733Y-59200000D01*
X178821733Y-57870000D02*
X155901733Y-57870000D01*
%TO.C,J2*%
X203256733Y-106135000D02*
X203256733Y-108795000D01*
X190496733Y-106135000D02*
X203256733Y-106135000D01*
X190496733Y-106135000D02*
X190496733Y-108795000D01*
X189226733Y-106135000D02*
X187896733Y-106135000D01*
X187896733Y-106135000D02*
X187896733Y-107465000D01*
X190496733Y-108795000D02*
X203256733Y-108795000D01*
%TO.C,J5*%
X182781733Y-60530000D02*
X182781733Y-57870000D01*
X200621733Y-60530000D02*
X182781733Y-60530000D01*
X200621733Y-60530000D02*
X200621733Y-57870000D01*
X201891733Y-60530000D02*
X203221733Y-60530000D01*
X203221733Y-60530000D02*
X203221733Y-59200000D01*
X200621733Y-57870000D02*
X182781733Y-57870000D01*
%TD*%
M02*
