%TF.GenerationSoftware,KiCad,Pcbnew,7.0.7*%
%TF.CreationDate,2025-08-28T15:07:29+07:00*%
%TF.ProjectId,uno-r4-shield-template,756e6f2d-7234-42d7-9368-69656c642d74,rev?*%
%TF.SameCoordinates,Original*%
%TF.FileFunction,Copper,L1,Top*%
%TF.FilePolarity,Positive*%
%FSLAX46Y46*%
G04 Gerber Fmt 4.6, Leading zero omitted, Abs format (unit mm)*
G04 Created by KiCad (PCBNEW 7.0.7) date 2025-08-28 15:07:29*
%MOMM*%
%LPD*%
G01*
G04 APERTURE LIST*
G04 Aperture macros list*
%AMRoundRect*
0 Rectangle with rounded corners*
0 $1 Rounding radius*
0 $2 $3 $4 $5 $6 $7 $8 $9 X,Y pos of 4 corners*
0 Add a 4 corners polygon primitive as box body*
4,1,4,$2,$3,$4,$5,$6,$7,$8,$9,$2,$3,0*
0 Add four circle primitives for the rounded corners*
1,1,$1+$1,$2,$3*
1,1,$1+$1,$4,$5*
1,1,$1+$1,$6,$7*
1,1,$1+$1,$8,$9*
0 Add four rect primitives between the rounded corners*
20,1,$1+$1,$2,$3,$4,$5,0*
20,1,$1+$1,$4,$5,$6,$7,0*
20,1,$1+$1,$6,$7,$8,$9,0*
20,1,$1+$1,$8,$9,$2,$3,0*%
G04 Aperture macros list end*
%TA.AperFunction,ComponentPad*%
%ADD10R,1.050000X1.500000*%
%TD*%
%TA.AperFunction,ComponentPad*%
%ADD11O,1.050000X1.500000*%
%TD*%
%TA.AperFunction,ComponentPad*%
%ADD12O,2.200000X2.200000*%
%TD*%
%TA.AperFunction,ComponentPad*%
%ADD13R,2.200000X2.200000*%
%TD*%
%TA.AperFunction,ComponentPad*%
%ADD14C,2.250000*%
%TD*%
%TA.AperFunction,ComponentPad*%
%ADD15C,2.600000*%
%TD*%
%TA.AperFunction,ComponentPad*%
%ADD16R,2.600000X2.600000*%
%TD*%
%TA.AperFunction,ComponentPad*%
%ADD17O,1.600000X1.600000*%
%TD*%
%TA.AperFunction,ComponentPad*%
%ADD18C,1.600000*%
%TD*%
%TA.AperFunction,ComponentPad*%
%ADD19R,1.700000X1.700000*%
%TD*%
%TA.AperFunction,ComponentPad*%
%ADD20O,1.700000X1.700000*%
%TD*%
%TA.AperFunction,ComponentPad*%
%ADD21C,1.400000*%
%TD*%
%TA.AperFunction,ComponentPad*%
%ADD22O,1.400000X1.400000*%
%TD*%
%TA.AperFunction,SMDPad,CuDef*%
%ADD23RoundRect,0.150000X-0.150000X0.587500X-0.150000X-0.587500X0.150000X-0.587500X0.150000X0.587500X0*%
%TD*%
%TA.AperFunction,ComponentPad*%
%ADD24C,1.635000*%
%TD*%
%TA.AperFunction,ComponentPad*%
%ADD25R,2.000000X2.000000*%
%TD*%
%TA.AperFunction,ComponentPad*%
%ADD26C,2.000000*%
%TD*%
%TA.AperFunction,ComponentPad*%
%ADD27R,1.600000X1.600000*%
%TD*%
%TA.AperFunction,ComponentPad*%
%ADD28R,4.000000X2.600000*%
%TD*%
%TA.AperFunction,ComponentPad*%
%ADD29O,4.000000X2.600000*%
%TD*%
%TA.AperFunction,SMDPad,CuDef*%
%ADD30R,1.000000X1.000000*%
%TD*%
%TA.AperFunction,ComponentPad*%
%ADD31R,1.800000X1.800000*%
%TD*%
%TA.AperFunction,ComponentPad*%
%ADD32C,1.800000*%
%TD*%
%TA.AperFunction,ComponentPad*%
%ADD33O,2.000000X5.000000*%
%TD*%
%TA.AperFunction,ComponentPad*%
%ADD34C,4.000000*%
%TD*%
%TA.AperFunction,ComponentPad*%
%ADD35R,4.000000X4.000000*%
%TD*%
%TA.AperFunction,ViaPad*%
%ADD36C,0.800000*%
%TD*%
%TA.AperFunction,Conductor*%
%ADD37C,1.000000*%
%TD*%
%TA.AperFunction,Conductor*%
%ADD38C,0.600000*%
%TD*%
%TA.AperFunction,Conductor*%
%ADD39C,2.000000*%
%TD*%
%TA.AperFunction,Conductor*%
%ADD40C,2.600000*%
%TD*%
G04 APERTURE END LIST*
D10*
%TO.P,Q2,1,C*%
%TO.N,Net-(D4-A)*%
X101610000Y-41500000D03*
D11*
%TO.P,Q2,2,B*%
%TO.N,Net-(Q2-B)*%
X103230000Y-40500000D03*
%TO.P,Q2,3,E*%
%TO.N,GND*%
X104850000Y-41500000D03*
%TD*%
D10*
%TO.P,Q1,1,C*%
%TO.N,Net-(D3-A)*%
X130055000Y-66140000D03*
D11*
%TO.P,Q1,2,B*%
%TO.N,Net-(Q1-B)*%
X131675000Y-65140000D03*
%TO.P,Q1,3,E*%
%TO.N,GND*%
X133295000Y-66140000D03*
%TD*%
%TO.P,Q3,3,E*%
%TO.N,GND*%
X172810000Y-118900000D03*
%TO.P,Q3,2,B*%
%TO.N,Net-(Q3-B)*%
X171190000Y-117900000D03*
D10*
%TO.P,Q3,1,C*%
%TO.N,Net-(D6-A)*%
X169570000Y-118900000D03*
%TD*%
D12*
%TO.P,D6,2,A*%
%TO.N,Net-(D6-A)*%
X176040000Y-119100000D03*
D13*
%TO.P,D6,1,K*%
%TO.N,+3.3V*%
X186200000Y-119100000D03*
%TD*%
D14*
%TO.P,K3,5,5*%
%TO.N,Net-(D6-A)*%
X179312500Y-123600000D03*
%TO.P,K3,4,4*%
%TO.N,Pilot_Lamp*%
X191512500Y-123600000D03*
%TO.P,K3,3,3*%
%TO.N,unconnected-(K3-Pad3)*%
X191512500Y-135600000D03*
%TO.P,K3,2,2*%
%TO.N,+3.3V*%
X179312500Y-135600000D03*
%TO.P,K3,1,1*%
%TO.N,+12V*%
X177312500Y-129600000D03*
%TD*%
D15*
%TO.P,J15,2,Pin_2*%
%TO.N,GND*%
X206520000Y-130400000D03*
D16*
%TO.P,J15,1,Pin_1*%
%TO.N,Pilot_Lamp_Out*%
X206520000Y-135480000D03*
%TD*%
D17*
%TO.P,R9,2*%
%TO.N,Net-(J17-Pin_1)*%
X171220000Y-132780000D03*
D18*
%TO.P,R9,1*%
%TO.N,Net-(Q3-B)*%
X171220000Y-122620000D03*
%TD*%
D19*
%TO.P,J19,1,Pin_1*%
%TO.N,Pilot_Lamp_Out*%
X200200000Y-140800000D03*
D20*
%TO.P,J19,2,Pin_2*%
%TO.N,Pilot_Lamp*%
X197660000Y-140800000D03*
%TD*%
D19*
%TO.P,J18,1,Pin_1*%
%TO.N,Net-(J18-Pin_1)*%
X205000000Y-99400000D03*
D20*
%TO.P,J18,2,Pin_2*%
X205000000Y-101940000D03*
%TD*%
D21*
%TO.P,R8,1*%
%TO.N,GSM_TXD*%
X194560000Y-67500000D03*
D22*
%TO.P,R8,2*%
%TO.N,+3.3V*%
X199640000Y-67500000D03*
%TD*%
D21*
%TO.P,R3,1*%
%TO.N,D3~*%
X193840000Y-64400000D03*
D22*
%TO.P,R3,2*%
%TO.N,+5V*%
X188760000Y-64400000D03*
%TD*%
D23*
%TO.P,Q4,1,G*%
%TO.N,+5V*%
X184650000Y-64162500D03*
%TO.P,Q4,2,S*%
%TO.N,D3~*%
X182750000Y-64162500D03*
%TO.P,Q4,3,D*%
%TO.N,GSM_TXD*%
X183700000Y-66037500D03*
%TD*%
D13*
%TO.P,D4,1,K*%
%TO.N,+3.3V*%
X118060000Y-41900000D03*
D12*
%TO.P,D4,2,A*%
%TO.N,Net-(D4-A)*%
X107900000Y-41900000D03*
%TD*%
D16*
%TO.P,J9,1,Pin_1*%
%TO.N,Coin_Acceptor_VCC*%
X84869042Y-76340427D03*
D15*
%TO.P,J9,2,Pin_2*%
%TO.N,GND*%
X84869042Y-81420427D03*
%TD*%
D18*
%TO.P,R7,1*%
%TO.N,Net-(Q2-B)*%
X103200000Y-45360000D03*
D17*
%TO.P,R7,2*%
%TO.N,Net-(R7-Pad2)*%
X103200000Y-55520000D03*
%TD*%
D13*
%TO.P,D7,1,K*%
%TO.N,Coin_Acceptor_VCC*%
X105040000Y-76200000D03*
D12*
%TO.P,D7,2,A*%
%TO.N,GND*%
X115200000Y-76200000D03*
%TD*%
D24*
%TO.P,S1,1,1*%
%TO.N,Net-(GSM_Module1-Vcc)*%
X149180000Y-59300000D03*
%TO.P,S1,2,2*%
%TO.N,GSM_VCC*%
X146640000Y-59300000D03*
%TO.P,S1,3,3*%
%TO.N,unconnected-(S1-Pad3)*%
X144100000Y-59300000D03*
%TD*%
D18*
%TO.P,R2,1*%
%TO.N,Net-(GSM_Module1-RXD)*%
X158711733Y-93600000D03*
D17*
%TO.P,R2,2*%
%TO.N,GND*%
X168871733Y-93600000D03*
%TD*%
D16*
%TO.P,J6,1,Pin_1*%
%TO.N,Net-(J6-Pin_1)*%
X187500000Y-42100000D03*
D15*
%TO.P,J6,2,Pin_2*%
%TO.N,GND*%
X182420000Y-42100000D03*
%TD*%
D25*
%TO.P,C1,1*%
%TO.N,Net-(GSM_Module1-Vcc)*%
X169000000Y-75900000D03*
D26*
%TO.P,C1,2*%
%TO.N,GND*%
X164000000Y-75900000D03*
%TD*%
D18*
%TO.P,R5,1*%
%TO.N,Net-(R5-Pad1)*%
X97400000Y-65840000D03*
D17*
%TO.P,R5,2*%
%TO.N,Coin_Enable*%
X97400000Y-55680000D03*
%TD*%
D27*
%TO.P,U3,1*%
%TO.N,Net-(R5-Pad1)*%
X100725000Y-65700000D03*
D17*
%TO.P,U3,2*%
%TO.N,Net-(D2-A)*%
X103265000Y-65700000D03*
%TO.P,U3,3*%
%TO.N,Net-(R7-Pad2)*%
X103265000Y-58080000D03*
%TO.P,U3,4*%
%TO.N,+3.3V*%
X100725000Y-58080000D03*
%TD*%
D27*
%TO.P,U2,1*%
%TO.N,Net-(R4-Pad1)*%
X129160000Y-90300000D03*
D17*
%TO.P,U2,2*%
%TO.N,Net-(D1-A)*%
X131700000Y-90300000D03*
%TO.P,U2,3*%
%TO.N,Net-(R6-Pad2)*%
X131700000Y-82680000D03*
%TO.P,U2,4*%
%TO.N,+3.3V*%
X129160000Y-82680000D03*
%TD*%
D18*
%TO.P,R1,1*%
%TO.N,D2*%
X168851733Y-88700000D03*
D17*
%TO.P,R1,2*%
%TO.N,Net-(GSM_Module1-RXD)*%
X158691733Y-88700000D03*
%TD*%
D16*
%TO.P,J20,1,Pin_1*%
%TO.N,Coin_Enable*%
X161380000Y-42200000D03*
D15*
%TO.P,J20,2,Pin_2*%
%TO.N,Green_LED*%
X156300000Y-42200000D03*
%TO.P,J20,3,Pin_3*%
%TO.N,GND*%
X151220000Y-42200000D03*
%TD*%
D28*
%TO.P,J12,1,Pin_1*%
%TO.N,Net-(J12-Pin_1)*%
X99205000Y-129925000D03*
D29*
%TO.P,J12,2,Pin_2*%
%TO.N,Net-(J12-Pin_2)*%
X99205000Y-135005000D03*
%TD*%
D16*
%TO.P,J7,1,Pin_1*%
%TO.N,+12V*%
X84869042Y-99240427D03*
D15*
%TO.P,J7,2,Pin_2*%
%TO.N,GND*%
X84869042Y-104320427D03*
%TD*%
D16*
%TO.P,J16,1,Pin_1*%
%TO.N,Net-(J12-Pin_1)*%
X83605000Y-129925000D03*
D15*
%TO.P,J16,2,Pin_2*%
%TO.N,Net-(J12-Pin_2)*%
X83605000Y-135005000D03*
%TD*%
D14*
%TO.P,K1,1,1*%
%TO.N,+4V*%
X137620000Y-76880000D03*
%TO.P,K1,2,2*%
%TO.N,+3.3V*%
X139620000Y-82880000D03*
%TO.P,K1,3,3*%
%TO.N,unconnected-(K1-Pad3)*%
X151820000Y-82880000D03*
%TO.P,K1,4,4*%
%TO.N,GSM_VCC*%
X151820000Y-70880000D03*
%TO.P,K1,5,5*%
%TO.N,Net-(D3-A)*%
X139620000Y-70880000D03*
%TD*%
D16*
%TO.P,J3,1,Pin_1*%
%TO.N,Net-(J18-Pin_1)*%
X200300000Y-42100000D03*
D15*
%TO.P,J3,2,Pin_2*%
%TO.N,GND*%
X195220000Y-42100000D03*
%TD*%
D16*
%TO.P,J14,1,Pin_1*%
%TO.N,Net-(J14-Pin_1)*%
X174400000Y-42105000D03*
D15*
%TO.P,J14,2,Pin_2*%
%TO.N,GND*%
X169320000Y-42105000D03*
%TD*%
D18*
%TO.P,R4,1*%
%TO.N,Net-(R4-Pad1)*%
X125445000Y-90500000D03*
D17*
%TO.P,R4,2*%
%TO.N,GSM_Reset*%
X125445000Y-80340000D03*
%TD*%
D30*
%TO.P,TP2,1,1*%
%TO.N,GND*%
X154900000Y-97600000D03*
%TD*%
D31*
%TO.P,D2,1,K*%
%TO.N,GND*%
X109175000Y-64600000D03*
D32*
%TO.P,D2,2,A*%
%TO.N,Net-(D2-A)*%
X106635000Y-64600000D03*
%TD*%
D16*
%TO.P,J8,1,Pin_1*%
%TO.N,+12V*%
X84869042Y-87775427D03*
D15*
%TO.P,J8,2,Pin_2*%
%TO.N,GND*%
X84869042Y-92855427D03*
%TD*%
D18*
%TO.P,R12,1*%
%TO.N,Net-(J14-Pin_1)*%
X177260000Y-53200000D03*
D17*
%TO.P,R12,2*%
%TO.N,Green_LED*%
X167100000Y-53200000D03*
%TD*%
D33*
%TO.P,GSM_Module1,1,Net*%
%TO.N,unconnected-(GSM_Module1-Net-Pad1)*%
X190991733Y-73000000D03*
%TO.P,GSM_Module1,2,Vcc*%
%TO.N,Net-(GSM_Module1-Vcc)*%
X188451733Y-73000000D03*
%TO.P,GSM_Module1,3,RST*%
%TO.N,unconnected-(GSM_Module1-RST-Pad3)*%
X185911733Y-73000000D03*
%TO.P,GSM_Module1,4,RXD*%
%TO.N,Net-(GSM_Module1-RXD)*%
X183371733Y-73000000D03*
%TO.P,GSM_Module1,5,TXD*%
%TO.N,GSM_TXD*%
X180831733Y-73000000D03*
%TO.P,GSM_Module1,6,GND*%
%TO.N,GND1*%
X178291733Y-73000000D03*
%TO.P,GSM_Module1,7,RING*%
%TO.N,unconnected-(GSM_Module1-RING-Pad7)*%
X188691733Y-94500000D03*
%TO.P,GSM_Module1,8,DTR*%
%TO.N,unconnected-(GSM_Module1-DTR-Pad8)*%
X186151733Y-94500000D03*
%TO.P,GSM_Module1,9,MIC+*%
%TO.N,unconnected-(GSM_Module1-MIC+-Pad9)*%
X183611733Y-94500000D03*
%TO.P,GSM_Module1,10,MIC-*%
%TO.N,unconnected-(GSM_Module1-MIC--Pad10)*%
X181071733Y-94500000D03*
%TO.P,GSM_Module1,11,SPKR+*%
%TO.N,unconnected-(GSM_Module1-SPKR+-Pad11)*%
X178531733Y-94500000D03*
%TO.P,GSM_Module1,12,SPKR-*%
%TO.N,unconnected-(GSM_Module1-SPKR--Pad12)*%
X175991733Y-94500000D03*
%TD*%
D13*
%TO.P,D3,1,K*%
%TO.N,+3.3V*%
X146600000Y-66480000D03*
D12*
%TO.P,D3,2,A*%
%TO.N,Net-(D3-A)*%
X136440000Y-66480000D03*
%TD*%
D34*
%TO.P,U1,4,Vout*%
%TO.N,+4V*%
X145820000Y-97610000D03*
%TO.P,U1,3,GND*%
%TO.N,GND*%
X145820000Y-115390000D03*
%TO.P,U1,2,GND*%
X105180000Y-115390000D03*
D35*
%TO.P,U1,1,Vin*%
%TO.N,+12V*%
X105180000Y-97610000D03*
%TD*%
D31*
%TO.P,D1,1,K*%
%TO.N,GND*%
X137700000Y-89180000D03*
D32*
%TO.P,D1,2,A*%
%TO.N,Net-(D1-A)*%
X135160000Y-89180000D03*
%TD*%
D18*
%TO.P,R6,1*%
%TO.N,Net-(Q1-B)*%
X131700000Y-69840000D03*
D17*
%TO.P,R6,2*%
%TO.N,Net-(R6-Pad2)*%
X131700000Y-80000000D03*
%TD*%
D30*
%TO.P,TP1,1,1*%
%TO.N,+4V*%
X150900000Y-97600000D03*
%TD*%
D18*
%TO.P,R11,1*%
%TO.N,Net-(J6-Pin_1)*%
X190215000Y-53105000D03*
D17*
%TO.P,R11,2*%
%TO.N,Arduino_LED*%
X180055000Y-53105000D03*
%TD*%
D16*
%TO.P,J13,1,Pin_1*%
%TO.N,GND*%
X84869042Y-64840427D03*
D15*
%TO.P,J13,2,Pin_2*%
X84869042Y-69920427D03*
%TD*%
D28*
%TO.P,J17,1,Pin_1*%
%TO.N,Net-(J17-Pin_1)*%
X157105000Y-137485000D03*
D29*
%TO.P,J17,2,Pin_2*%
%TO.N,unconnected-(J17-Pin_2-Pad2)*%
X157105000Y-132405000D03*
%TO.P,J17,3,Pin_3*%
%TO.N,+3.3V*%
X157105000Y-127325000D03*
%TD*%
D14*
%TO.P,K2,1,1*%
%TO.N,+12V*%
X109200000Y-52400000D03*
%TO.P,K2,2,2*%
%TO.N,+3.3V*%
X111200000Y-58400000D03*
%TO.P,K2,3,3*%
%TO.N,Coin_Acceptor_VCC*%
X123400000Y-58400000D03*
%TO.P,K2,4,4*%
%TO.N,unconnected-(K2-Pad4)*%
X123400000Y-46400000D03*
%TO.P,K2,5,5*%
%TO.N,Net-(D4-A)*%
X111200000Y-46400000D03*
%TD*%
D19*
%TO.P,J1,1,Pin_1*%
%TO.N,BOOT*%
X166361733Y-107465000D03*
D20*
%TO.P,J1,2,Pin_2*%
%TO.N,IOREF*%
X168901733Y-107465000D03*
%TO.P,J1,3,Pin_3*%
%TO.N,RESET*%
X171441733Y-107465000D03*
%TO.P,J1,4,Pin_4*%
%TO.N,+3.3V*%
X173981733Y-107465000D03*
%TO.P,J1,5,Pin_5*%
%TO.N,+5V*%
X176521733Y-107465000D03*
%TO.P,J1,6,Pin_6*%
%TO.N,GND*%
X179061733Y-107465000D03*
%TO.P,J1,7,Pin_7*%
X181601733Y-107465000D03*
%TO.P,J1,8,Pin_8*%
%TO.N,+VSW*%
X184141733Y-107465000D03*
%TD*%
D19*
%TO.P,J4,1,Pin_1*%
%TO.N,Arduino_LED*%
X180091733Y-59200000D03*
D20*
%TO.P,J4,2,Pin_2*%
%TO.N,D9~*%
X177551733Y-59200000D03*
%TO.P,J4,3,Pin_3*%
%TO.N,D10~*%
X175011733Y-59200000D03*
%TO.P,J4,4,Pin_4*%
%TO.N,D11~*%
X172471733Y-59200000D03*
%TO.P,J4,5,Pin_5*%
%TO.N,D12*%
X169931733Y-59200000D03*
%TO.P,J4,6,Pin_6*%
%TO.N,D13*%
X167391733Y-59200000D03*
%TO.P,J4,7,Pin_7*%
%TO.N,GND1*%
X164851733Y-59200000D03*
%TO.P,J4,8,Pin_8*%
%TO.N,AREF*%
X162311733Y-59200000D03*
%TO.P,J4,9,Pin_9*%
%TO.N,D18*%
X159771733Y-59200000D03*
%TO.P,J4,10,Pin_10*%
%TO.N,D19*%
X157231733Y-59200000D03*
%TD*%
D19*
%TO.P,J2,1,Pin_1*%
%TO.N,A0{slash}D14*%
X189226733Y-107465000D03*
D20*
%TO.P,J2,2,Pin_2*%
%TO.N,A1{slash}D15*%
X191766733Y-107465000D03*
%TO.P,J2,3,Pin_3*%
%TO.N,A2{slash}D16*%
X194306733Y-107465000D03*
%TO.P,J2,4,Pin_4*%
%TO.N,A3{slash}D17*%
X196846733Y-107465000D03*
%TO.P,J2,5,Pin_5*%
%TO.N,A4{slash}D18*%
X199386733Y-107465000D03*
%TO.P,J2,6,Pin_6*%
%TO.N,A5{slash}D19*%
X201926733Y-107465000D03*
%TD*%
D19*
%TO.P,J5,1,Pin_1*%
%TO.N,D0*%
X201891733Y-59200000D03*
D20*
%TO.P,J5,2,Pin_2*%
%TO.N,D1*%
X199351733Y-59200000D03*
%TO.P,J5,3,Pin_3*%
%TO.N,D2*%
X196811733Y-59200000D03*
%TO.P,J5,4,Pin_4*%
%TO.N,D3~*%
X194271733Y-59200000D03*
%TO.P,J5,5,Pin_5*%
%TO.N,D4*%
X191731733Y-59200000D03*
%TO.P,J5,6,Pin_6*%
%TO.N,D5~*%
X189191733Y-59200000D03*
%TO.P,J5,7,Pin_7*%
%TO.N,D6~*%
X186651733Y-59200000D03*
%TO.P,J5,8,Pin_8*%
%TO.N,GSM_Reset*%
X184111733Y-59200000D03*
%TD*%
D36*
%TO.N,+5V*%
X191400000Y-65200000D03*
X199300000Y-70200000D03*
%TO.N,GND*%
X157500000Y-98500000D03*
%TD*%
D37*
%TO.N,Net-(J17-Pin_1)*%
X152200000Y-125200000D02*
X154200000Y-123200000D01*
X161640000Y-123200000D02*
X171220000Y-132780000D01*
X155085000Y-137485000D02*
X152200000Y-134600000D01*
X152200000Y-134600000D02*
X152200000Y-125200000D01*
X154200000Y-123200000D02*
X161640000Y-123200000D01*
X157105000Y-137485000D02*
X155085000Y-137485000D01*
D38*
%TO.N,GSM_TXD*%
X193360000Y-66300000D02*
X194560000Y-67500000D01*
X183962500Y-66300000D02*
X193360000Y-66300000D01*
X183700000Y-66037500D02*
X183962500Y-66300000D01*
D37*
%TO.N,+3.3V*%
X158025000Y-127325000D02*
X157105000Y-127325000D01*
X166300000Y-135600000D02*
X158025000Y-127325000D01*
X179312500Y-135600000D02*
X166300000Y-135600000D01*
%TO.N,+12V*%
X177312500Y-129600000D02*
X172900000Y-129600000D01*
X172900000Y-129600000D02*
X146600000Y-103300000D01*
X146600000Y-103300000D02*
X146400000Y-103300000D01*
X146400000Y-103300000D02*
X120100000Y-103300000D01*
%TO.N,+3.3V*%
X186200000Y-128712500D02*
X186200000Y-119100000D01*
X179312500Y-135600000D02*
X186200000Y-128712500D01*
%TO.N,Net-(Q3-B)*%
X171190000Y-122590000D02*
X171220000Y-122620000D01*
X171190000Y-117900000D02*
X171190000Y-122590000D01*
%TO.N,Net-(D6-A)*%
X174200000Y-115500000D02*
X176040000Y-117340000D01*
X176040000Y-117340000D02*
X176040000Y-119100000D01*
X169570000Y-116830000D02*
X170900000Y-115500000D01*
X169570000Y-118900000D02*
X169570000Y-116830000D01*
X170900000Y-115500000D02*
X174200000Y-115500000D01*
D39*
X176040000Y-120327500D02*
X179312500Y-123600000D01*
X176040000Y-119100000D02*
X176040000Y-120327500D01*
D37*
%TO.N,+3.3V*%
X185616733Y-119100000D02*
X173981733Y-107465000D01*
X186200000Y-119100000D02*
X185616733Y-119100000D01*
X201400000Y-112200000D02*
X194500000Y-119100000D01*
X201400000Y-112100000D02*
X201400000Y-112200000D01*
X204300000Y-109200000D02*
X201400000Y-112100000D01*
X194500000Y-119100000D02*
X186200000Y-119100000D01*
%TO.N,Net-(D4-A)*%
X102900000Y-38400000D02*
X101610000Y-39690000D01*
X106600000Y-38400000D02*
X102900000Y-38400000D01*
X107900000Y-39700000D02*
X106600000Y-38400000D01*
X101610000Y-39690000D02*
X101610000Y-41500000D01*
X107900000Y-41900000D02*
X107900000Y-39700000D01*
%TO.N,Coin_Enable*%
X102000000Y-36900000D02*
X97400000Y-41500000D01*
X97400000Y-41500000D02*
X97400000Y-55680000D01*
X156600000Y-36900000D02*
X102000000Y-36900000D01*
X161380000Y-41680000D02*
X156600000Y-36900000D01*
X161380000Y-42200000D02*
X161380000Y-41680000D01*
%TO.N,Net-(Q2-B)*%
X103200000Y-45360000D02*
X103200000Y-40530000D01*
X103200000Y-40530000D02*
X103230000Y-40500000D01*
%TO.N,Net-(D3-A)*%
X136440000Y-64340000D02*
X136440000Y-66480000D01*
X135300000Y-63200000D02*
X136440000Y-64340000D01*
X130055000Y-64245000D02*
X131100000Y-63200000D01*
X131100000Y-63200000D02*
X135300000Y-63200000D01*
X130055000Y-66140000D02*
X130055000Y-64245000D01*
%TO.N,Net-(Q1-B)*%
X131675000Y-69815000D02*
X131700000Y-69840000D01*
X131675000Y-65140000D02*
X131675000Y-69815000D01*
D39*
%TO.N,Pilot_Lamp*%
X197660000Y-129747500D02*
X191512500Y-123600000D01*
X197660000Y-140800000D02*
X197660000Y-129747500D01*
%TO.N,Pilot_Lamp_Out*%
X206520000Y-137180000D02*
X206520000Y-135480000D01*
X202900000Y-140800000D02*
X206520000Y-137180000D01*
X200200000Y-140800000D02*
X202900000Y-140800000D01*
D38*
%TO.N,+5V*%
X190600000Y-64400000D02*
X188760000Y-64400000D01*
X191400000Y-65200000D02*
X190600000Y-64400000D01*
D37*
X199300000Y-70200000D02*
X199300000Y-70300000D01*
%TO.N,+3.3V*%
X201400000Y-69260000D02*
X199640000Y-67500000D01*
X201400000Y-102400000D02*
X201400000Y-69260000D01*
X204300000Y-105300000D02*
X201400000Y-102400000D01*
X204300000Y-109200000D02*
X204300000Y-105300000D01*
%TO.N,+5V*%
X193400000Y-90600000D02*
X199300000Y-84700000D01*
X173900000Y-90600000D02*
X193400000Y-90600000D01*
X172300000Y-92200000D02*
X173900000Y-90600000D01*
X199300000Y-84700000D02*
X199300000Y-70200000D01*
X172300000Y-98500000D02*
X172300000Y-92200000D01*
X176521733Y-102721733D02*
X172300000Y-98500000D01*
X176521733Y-107465000D02*
X176521733Y-102721733D01*
D38*
X188522500Y-64162500D02*
X188760000Y-64400000D01*
X184650000Y-64162500D02*
X188522500Y-64162500D01*
%TO.N,D3~*%
X194271733Y-63968267D02*
X193840000Y-64400000D01*
X194271733Y-59200000D02*
X194271733Y-63968267D01*
X191640000Y-62200000D02*
X193840000Y-64400000D01*
X184100000Y-62200000D02*
X191640000Y-62200000D01*
X182750000Y-64162500D02*
X182750000Y-63550000D01*
X182750000Y-63550000D02*
X184100000Y-62200000D01*
%TO.N,GSM_TXD*%
X180831733Y-69568267D02*
X180831733Y-73000000D01*
X183700000Y-66700000D02*
X180831733Y-69568267D01*
X183700000Y-66037500D02*
X183700000Y-66700000D01*
D37*
%TO.N,GND*%
X156600000Y-97600000D02*
X157500000Y-98500000D01*
X154900000Y-97600000D02*
X156600000Y-97600000D01*
%TO.N,Net-(D1-A)*%
X131700000Y-90300000D02*
X134040000Y-90300000D01*
X134040000Y-90300000D02*
X135160000Y-89180000D01*
D39*
%TO.N,D2*%
X191991733Y-88700000D02*
X168851733Y-88700000D01*
X196811733Y-83880000D02*
X191991733Y-88700000D01*
X196811733Y-59200000D02*
X196811733Y-83880000D01*
D37*
%TO.N,Net-(D2-A)*%
X106635000Y-64600000D02*
X104365000Y-64600000D01*
X104365000Y-64600000D02*
X103265000Y-65700000D01*
D39*
%TO.N,Net-(GSM_Module1-Vcc)*%
X188451733Y-76840000D02*
X185491733Y-79800000D01*
X172900000Y-79800000D02*
X169000000Y-75900000D01*
D37*
X149180000Y-59300000D02*
X152400000Y-59300000D01*
D39*
X188451733Y-73000000D02*
X188451733Y-76840000D01*
D37*
X152400000Y-59300000D02*
X169000000Y-75900000D01*
D39*
X185491733Y-79800000D02*
X172900000Y-79800000D01*
%TO.N,Net-(GSM_Module1-RXD)*%
X193991733Y-70200000D02*
X193991733Y-80500000D01*
X185191733Y-68400000D02*
X192191733Y-68400000D01*
X183371733Y-73000000D02*
X183371733Y-70220000D01*
X158711733Y-88720000D02*
X158691733Y-88700000D01*
X193991733Y-80500000D02*
X189491733Y-85000000D01*
X183371733Y-70220000D02*
X185191733Y-68400000D01*
X167491733Y-85000000D02*
X163791733Y-88700000D01*
X158711733Y-93600000D02*
X158711733Y-88720000D01*
X163791733Y-88700000D02*
X158691733Y-88700000D01*
X192191733Y-68400000D02*
X193991733Y-70200000D01*
X189491733Y-85000000D02*
X167491733Y-85000000D01*
D37*
%TO.N,+3.3V*%
X118060000Y-51540000D02*
X118060000Y-41900000D01*
X139620000Y-82880000D02*
X150240000Y-93500000D01*
X157500000Y-96300000D02*
X154700000Y-93500000D01*
X111200000Y-58400000D02*
X118060000Y-51540000D01*
X129160000Y-82680000D02*
X129160000Y-78920000D01*
X101900000Y-53800000D02*
X100725000Y-54975000D01*
X146600000Y-66480000D02*
X146600000Y-75900000D01*
X146600000Y-75900000D02*
X139620000Y-82880000D01*
X106600000Y-53800000D02*
X101900000Y-53800000D01*
X129160000Y-78920000D02*
X130500000Y-77580000D01*
X130500000Y-77580000D02*
X134300000Y-77580000D01*
X135000000Y-78280000D02*
X135020000Y-78280000D01*
X100725000Y-54975000D02*
X100725000Y-58080000D01*
X111200000Y-58400000D02*
X106600000Y-53800000D01*
X162816733Y-96300000D02*
X157500000Y-96300000D01*
X150240000Y-93500000D02*
X154700000Y-93500000D01*
X173981733Y-107465000D02*
X162816733Y-96300000D01*
X134300000Y-77580000D02*
X135000000Y-78280000D01*
X135020000Y-78280000D02*
X139620000Y-82880000D01*
%TO.N,Net-(J12-Pin_1)*%
X83605000Y-129925000D02*
X99205000Y-129925000D01*
D39*
%TO.N,GND1*%
X168291733Y-69400000D02*
X164851733Y-65960000D01*
X171891733Y-73000000D02*
X168291733Y-69400000D01*
X178291733Y-73000000D02*
X171891733Y-73000000D01*
X164851733Y-65960000D02*
X164851733Y-59200000D01*
D37*
%TO.N,Net-(D3-A)*%
X136440000Y-67700000D02*
X139620000Y-70880000D01*
X136440000Y-66480000D02*
X136440000Y-67700000D01*
%TO.N,Net-(D4-A)*%
X107900000Y-43100000D02*
X111200000Y-46400000D01*
X107900000Y-41900000D02*
X107900000Y-43100000D01*
%TO.N,GSM_Reset*%
X180911733Y-56000000D02*
X133000000Y-56000000D01*
X184111733Y-59200000D02*
X180911733Y-56000000D01*
X125445000Y-63555000D02*
X125445000Y-80340000D01*
X133000000Y-56000000D02*
X125445000Y-63555000D01*
%TO.N,Net-(J6-Pin_1)*%
X190215000Y-53105000D02*
X190215000Y-44915000D01*
X190215000Y-44915000D02*
X187500000Y-42200000D01*
D40*
%TO.N,+12V*%
X86875427Y-87775427D02*
X84869042Y-87775427D01*
D37*
X105180000Y-80820000D02*
X105180000Y-97610000D01*
X114410000Y-97610000D02*
X105180000Y-97610000D01*
X120100000Y-103300000D02*
X114410000Y-97610000D01*
D40*
X89300000Y-99240427D02*
X89300000Y-90200000D01*
D37*
X116700000Y-39300000D02*
X126500000Y-39300000D01*
D40*
X89300000Y-90200000D02*
X86875427Y-87775427D01*
D37*
X109200000Y-52400000D02*
X112200000Y-52400000D01*
D40*
X89300000Y-99240427D02*
X103549573Y-99240427D01*
D37*
X114500000Y-50100000D02*
X114500000Y-41500000D01*
X114500000Y-41500000D02*
X116700000Y-39300000D01*
X128500000Y-57500000D02*
X105180000Y-80820000D01*
X112200000Y-52400000D02*
X114500000Y-50100000D01*
D40*
X84869042Y-99240427D02*
X89300000Y-99240427D01*
X103549573Y-99240427D02*
X105180000Y-97610000D01*
D37*
X126500000Y-39300000D02*
X128500000Y-41300000D01*
X128500000Y-41300000D02*
X128500000Y-57500000D01*
D40*
%TO.N,Coin_Acceptor_VCC*%
X105459573Y-76340427D02*
X123400000Y-58400000D01*
X84869042Y-76340427D02*
X105459573Y-76340427D01*
D37*
%TO.N,Net-(J12-Pin_2)*%
X83605000Y-135005000D02*
X99205000Y-135005000D01*
%TO.N,Net-(J14-Pin_1)*%
X177260000Y-44965000D02*
X174400000Y-42105000D01*
X177260000Y-53200000D02*
X177260000Y-44965000D01*
%TO.N,+4V*%
X127700000Y-85500000D02*
X139300000Y-85500000D01*
X145820000Y-97610000D02*
X150890000Y-97610000D01*
X127500000Y-77600000D02*
X127500000Y-81500000D01*
X130300000Y-74800000D02*
X127500000Y-77600000D01*
X135540000Y-74800000D02*
X130300000Y-74800000D01*
X137620000Y-76880000D02*
X135540000Y-74800000D01*
X145820000Y-92020000D02*
X145820000Y-97610000D01*
X126500000Y-82500000D02*
X126500000Y-84300000D01*
X126500000Y-84300000D02*
X127700000Y-85500000D01*
X139300000Y-85500000D02*
X145820000Y-92020000D01*
X150890000Y-97610000D02*
X150900000Y-97600000D01*
X127500000Y-81500000D02*
X126500000Y-82500000D01*
%TO.N,GSM_VCC*%
X151820000Y-64480000D02*
X151820000Y-70880000D01*
X146640000Y-59300000D02*
X151820000Y-64480000D01*
%TO.N,Net-(R4-Pad1)*%
X128940000Y-90520000D02*
X129160000Y-90300000D01*
X125900000Y-90520000D02*
X128940000Y-90520000D01*
%TO.N,Net-(R5-Pad1)*%
X97540000Y-65700000D02*
X97400000Y-65840000D01*
X100725000Y-65700000D02*
X97540000Y-65700000D01*
%TO.N,Net-(R6-Pad2)*%
X131700000Y-79960000D02*
X131700000Y-82680000D01*
%TO.N,Net-(R7-Pad2)*%
X103200000Y-55520000D02*
X103200000Y-58015000D01*
X103200000Y-58015000D02*
X103265000Y-58080000D01*
%TO.N,Green_LED*%
X156300000Y-42200000D02*
X167100000Y-53000000D01*
X167100000Y-53000000D02*
X167100000Y-53200000D01*
%TO.N,Net-(J18-Pin_1)*%
X200300000Y-50100000D02*
X200300000Y-42300000D01*
X205000000Y-54800000D02*
X200300000Y-50100000D01*
X205000000Y-102200000D02*
X205000000Y-54800000D01*
%TD*%
M02*
