M48
; DRILL file {KiCad 7.0.7} date Sat Aug  2 13:59:39 2025
; FORMAT={-:-/ absolute / inch / decimal}
; #@! TF.CreationDate,2025-08-02T13:59:39+07:00
; #@! TF.GenerationSoftware,Kicad,Pcbnew,7.0.7
; #@! TF.FileFunction,Plated,1,2,PTH
FMAT,2
INCH
; #@! TA.AperFunction,Plated,PTH,ViaDrill
T1C0.0157
; #@! TA.AperFunction,Plated,PTH,ComponentDrill
T2C0.0295
; #@! TA.AperFunction,Plated,PTH,ComponentDrill
T3C0.0315
; #@! TA.AperFunction,Plated,PTH,ComponentDrill
T4C0.0354
; #@! TA.AperFunction,Plated,PTH,ComponentDrill
T5C0.0394
; #@! TA.AperFunction,Plated,PTH,ComponentDrill
T6C0.0429
; #@! TA.AperFunction,Plated,PTH,ComponentDrill
T7C0.0433
; #@! TA.AperFunction,Plated,PTH,ComponentDrill
T8C0.0512
; #@! TA.AperFunction,Plated,PTH,ComponentDrill
T9C0.0591
; #@! TA.AperFunction,Plated,PTH,ComponentDrill
T10C0.0787
%
G90
G05
T1
X6.2008Y-3.878
T2
X4.0142Y-1.6339
X4.0642Y-1.6339
X4.1142Y-1.6339
X5.1341Y-2.6039
X5.1841Y-2.6039
X5.2341Y-2.6039
X7.1309Y-4.5467
X7.1809Y-4.5467
X7.2309Y-4.5467
T3
X3.8346Y-2.1921
X3.8346Y-2.5921
X3.9656Y-2.2866
X3.9656Y-2.5866
X4.063Y-1.7858
X4.063Y-2.1858
X4.0656Y-2.2866
X4.0656Y-2.5866
X4.9388Y-3.163
X4.9388Y-3.563
X5.085Y-3.2551
X5.085Y-3.5551
X5.185Y-2.7496
X5.185Y-3.1496
X5.185Y-3.2551
X5.185Y-3.5551
X6.2477Y-3.4921
X6.2485Y-3.685
X6.5787Y-2.0945
X6.6477Y-3.4921
X6.6485Y-3.685
X6.7333Y-5.1144
X6.7333Y-5.5144
X6.9262Y-5.1144
X6.9262Y-5.5144
X6.9787Y-2.0945
X7.0821Y-5.212
X7.0821Y-5.512
X7.0888Y-2.0907
X7.1821Y-4.6931
X7.1821Y-5.0931
X7.1821Y-5.212
X7.1821Y-5.512
X7.4888Y-2.0907
T4
X4.1982Y-2.5433
X4.2982Y-2.5433
X5.3213Y-3.511
X5.4213Y-3.511
X7.3262Y-5.464
X7.4262Y-5.464
T5
X6.1902Y-2.3307
X6.2902Y-2.3307
X6.3902Y-2.3307
X6.4567Y-2.9882
X6.4902Y-2.3307
X6.5497Y-4.2309
X6.5902Y-2.3307
X6.6497Y-4.2309
X6.6535Y-2.9882
X6.6902Y-2.3307
X6.7497Y-4.2309
X6.7902Y-2.3307
X6.8497Y-4.2309
X6.8902Y-2.3307
X6.9288Y-3.7205
X6.9497Y-4.2309
X6.9902Y-2.3307
X7.0194Y-2.874
X7.0288Y-3.7205
X7.0497Y-4.2309
X7.0902Y-2.3307
X7.1194Y-2.874
X7.1288Y-3.7205
X7.1497Y-4.2309
X7.2194Y-2.874
X7.2288Y-3.7205
X7.2485Y-2.3307
X7.2497Y-4.2309
X7.3194Y-2.874
X7.3288Y-3.7205
X7.3485Y-2.3307
X7.4194Y-2.874
X7.4288Y-3.7205
X7.4485Y-2.3307
X7.4499Y-4.2309
X7.5194Y-2.874
X7.5485Y-2.3307
X7.5499Y-4.2309
X7.6485Y-2.3307
X7.6499Y-4.2309
X7.7485Y-2.3307
X7.7499Y-4.2309
X7.8485Y-2.3307
X7.8499Y-4.2309
X7.9485Y-2.3307
X7.9499Y-4.2309
X8.0709Y-4.0236
T6
X5.6732Y-2.3346
X5.7732Y-2.3346
X5.8732Y-2.3346
T7
X4.1354Y-3.0
X4.248Y-1.6496
X4.5354Y-3.0
X4.648Y-1.6496
X5.3717Y-2.6173
X5.7717Y-2.6173
X7.3719Y-4.5545
X7.7719Y-4.5545
T8
X3.2915Y-5.1152
X3.2915Y-5.3152
X3.3413Y-2.5528
X3.3413Y-2.7528
X3.3413Y-3.0055
X3.3413Y-3.2055
X3.3413Y-3.4557
X3.3413Y-3.6557
X3.3413Y-3.9071
X3.3413Y-4.1071
X5.9535Y-1.6614
X6.1535Y-1.6614
X6.3535Y-1.6614
X6.6661Y-1.6577
X6.8661Y-1.6577
X7.1819Y-1.6575
X7.3819Y-1.6575
X7.6858Y-1.6575
X7.8858Y-1.6575
X8.563Y-3.3898
X8.563Y-3.5898
X8.5669Y-2.8945
X8.5669Y-3.0945
X8.5719Y-4.9994
X8.5719Y-5.1994
T9
X4.2992Y-2.063
X4.378Y-1.8268
X4.378Y-2.2992
X4.8583Y-1.8268
X4.8583Y-2.2992
X5.4181Y-3.0268
X5.4969Y-2.7906
X5.4969Y-3.263
X5.9772Y-2.7906
X5.9772Y-3.263
X7.4219Y-4.9679
X7.5007Y-4.7317
X7.5007Y-5.2041
X7.981Y-4.7317
X7.981Y-5.2041
T10
X4.1409Y-3.8429
X4.1409Y-4.5429
X5.7409Y-3.8429
X5.7409Y-4.5429
T8
G00X3.9392Y-5.1152
M15
G01X3.8722Y-5.1152
M16
G05
G00X3.9392Y-5.3152
M15
G01X3.8722Y-5.3152
M16
G05
G00X6.1518Y-5.0128
M15
G01X6.2187Y-5.0128
M16
G05
G00X6.1518Y-5.2128
M15
G01X6.2187Y-5.2128
M16
G05
G00X6.1518Y-5.4128
M15
G01X6.2187Y-5.4128
M16
G05
T0
M30
