%TF.GenerationSoftware,KiCad,Pcbnew,7.0.7*%
%TF.CreationDate,2025-08-02T13:59:43+07:00*%
%TF.ProjectId,uno-r4-shield-template,756e6f2d-7234-42d7-9368-69656c642d74,rev?*%
%TF.SameCoordinates,Original*%
%TF.FileFunction,Soldermask,Bot*%
%TF.FilePolarity,Negative*%
%FSLAX46Y46*%
G04 Gerber Fmt 4.6, Leading zero omitted, Abs format (unit mm)*
G04 Created by KiCad (PCBNEW 7.0.7) date 2025-08-02 13:59:43*
%MOMM*%
%LPD*%
G01*
G04 APERTURE LIST*
%ADD10R,2.200000X2.200000*%
%ADD11O,2.200000X2.200000*%
%ADD12R,2.600000X2.600000*%
%ADD13C,2.600000*%
%ADD14C,1.600000*%
%ADD15O,1.600000X1.600000*%
%ADD16R,1.050000X1.500000*%
%ADD17O,1.050000X1.500000*%
%ADD18C,1.635000*%
%ADD19R,2.000000X2.000000*%
%ADD20C,2.000000*%
%ADD21C,2.250000*%
%ADD22R,1.600000X1.600000*%
%ADD23R,4.000000X2.600000*%
%ADD24O,4.000000X2.600000*%
%ADD25R,1.700000X1.700000*%
%ADD26R,1.800000X1.800000*%
%ADD27C,1.800000*%
%ADD28O,2.000000X5.000000*%
%ADD29R,4.000000X4.000000*%
%ADD30C,4.000000*%
%ADD31O,1.700000X1.700000*%
G04 APERTURE END LIST*
D10*
%TO.C,D4*%
X118060000Y-41900000D03*
D11*
X107900000Y-41900000D03*
%TD*%
D12*
%TO.C,J9*%
X84869042Y-76340427D03*
D13*
X84869042Y-81420427D03*
%TD*%
D10*
%TO.C,D6*%
X197405000Y-115685000D03*
D11*
X187245000Y-115685000D03*
%TD*%
D14*
%TO.C,R7*%
X103200000Y-45360000D03*
D15*
X103200000Y-55520000D03*
%TD*%
D10*
%TO.C,D7*%
X105040000Y-76200000D03*
D11*
X115200000Y-76200000D03*
%TD*%
D16*
%TO.C,Q2*%
X101960000Y-41500000D03*
D17*
X103230000Y-41500000D03*
X104500000Y-41500000D03*
%TD*%
D18*
%TO.C,S1*%
X149180000Y-59300000D03*
X146640000Y-59300000D03*
X144100000Y-59300000D03*
%TD*%
D14*
%TO.C,R2*%
X158711733Y-93600000D03*
D15*
X168871733Y-93600000D03*
%TD*%
D12*
%TO.C,J6*%
X187500000Y-42100000D03*
D13*
X182420000Y-42100000D03*
%TD*%
D19*
%TO.C,C1*%
X169000000Y-75900000D03*
D20*
X164000000Y-75900000D03*
%TD*%
D14*
%TO.C,R5*%
X97400000Y-65840000D03*
D15*
X97400000Y-55680000D03*
%TD*%
D21*
%TO.C,K3*%
X188517500Y-126185000D03*
X190517500Y-132185000D03*
X202717500Y-132185000D03*
X202717500Y-120185000D03*
X190517500Y-120185000D03*
%TD*%
D22*
%TO.C,U3*%
X100725000Y-65700000D03*
D15*
X103265000Y-65700000D03*
X103265000Y-58080000D03*
X100725000Y-58080000D03*
%TD*%
D22*
%TO.C,U2*%
X129160000Y-90300000D03*
D15*
X131700000Y-90300000D03*
X131700000Y-82680000D03*
X129160000Y-82680000D03*
%TD*%
D22*
%TO.C,U4*%
X179885000Y-140005000D03*
D15*
X182425000Y-140005000D03*
X182425000Y-132385000D03*
X179885000Y-132385000D03*
%TD*%
D12*
%TO.C,J10*%
X217500000Y-91180000D03*
D13*
X217500000Y-86100000D03*
%TD*%
D14*
%TO.C,R1*%
X168851733Y-88700000D03*
D15*
X158691733Y-88700000D03*
%TD*%
D12*
%TO.C,J20*%
X161380000Y-42200000D03*
D13*
X156300000Y-42200000D03*
X151220000Y-42200000D03*
%TD*%
D23*
%TO.C,J12*%
X99205000Y-129925000D03*
D24*
X99205000Y-135005000D03*
%TD*%
D12*
%TO.C,J7*%
X84869042Y-99240427D03*
D13*
X84869042Y-104320427D03*
%TD*%
D12*
%TO.C,J16*%
X83605000Y-129925000D03*
D13*
X83605000Y-135005000D03*
%TD*%
D21*
%TO.C,K1*%
X137620000Y-76880000D03*
X139620000Y-82880000D03*
X151820000Y-82880000D03*
X151820000Y-70880000D03*
X139620000Y-70880000D03*
%TD*%
D14*
%TO.C,R8*%
X175925000Y-140065000D03*
D15*
X175925000Y-129905000D03*
%TD*%
D25*
%TO.C,J19*%
X205000000Y-102200000D03*
%TD*%
D14*
%TO.C,R9*%
X182425000Y-119205000D03*
D15*
X182425000Y-129365000D03*
%TD*%
D12*
%TO.C,J3*%
X200300000Y-42100000D03*
D13*
X195220000Y-42100000D03*
%TD*%
D12*
%TO.C,J14*%
X174400000Y-42105000D03*
D13*
X169320000Y-42105000D03*
%TD*%
D14*
%TO.C,R4*%
X125445000Y-90500000D03*
D15*
X125445000Y-80340000D03*
%TD*%
D16*
%TO.C,Q1*%
X130405000Y-66140000D03*
D17*
X131675000Y-66140000D03*
X132945000Y-66140000D03*
%TD*%
D12*
%TO.C,J11*%
X217600000Y-78600000D03*
D13*
X217600000Y-73520000D03*
%TD*%
D26*
%TO.C,D2*%
X109175000Y-64600000D03*
D27*
X106635000Y-64600000D03*
%TD*%
D14*
%TO.C,R10*%
X171025000Y-140065000D03*
D15*
X171025000Y-129905000D03*
%TD*%
D12*
%TO.C,J8*%
X84869042Y-87775427D03*
D13*
X84869042Y-92855427D03*
%TD*%
D14*
%TO.C,R12*%
X177260000Y-53200000D03*
D15*
X167100000Y-53200000D03*
%TD*%
D12*
%TO.C,J15*%
X217725000Y-132065000D03*
D13*
X217725000Y-126985000D03*
%TD*%
D28*
%TO.C,GSM_Module1*%
X190991733Y-73000000D03*
X188451733Y-73000000D03*
X185911733Y-73000000D03*
X183371733Y-73000000D03*
X180831733Y-73000000D03*
X178291733Y-73000000D03*
X188691733Y-94500000D03*
X186151733Y-94500000D03*
X183611733Y-94500000D03*
X181071733Y-94500000D03*
X178531733Y-94500000D03*
X175991733Y-94500000D03*
%TD*%
D10*
%TO.C,D3*%
X146600000Y-66480000D03*
D11*
X136440000Y-66480000D03*
%TD*%
D26*
%TO.C,D5*%
X188625000Y-138785000D03*
D27*
X186085000Y-138785000D03*
%TD*%
D29*
%TO.C,U1*%
X105180000Y-97610000D03*
D30*
X105180000Y-115390000D03*
X145820000Y-115390000D03*
X145820000Y-97610000D03*
%TD*%
D26*
%TO.C,D1*%
X137700000Y-89180000D03*
D27*
X135160000Y-89180000D03*
%TD*%
D14*
%TO.C,R6*%
X131700000Y-69840000D03*
D15*
X131700000Y-80000000D03*
%TD*%
D14*
%TO.C,R11*%
X190215000Y-53105000D03*
D15*
X180055000Y-53105000D03*
%TD*%
D12*
%TO.C,J13*%
X84869042Y-64840427D03*
D13*
X84869042Y-69920427D03*
%TD*%
D16*
%TO.C,Q3*%
X181125000Y-115485000D03*
D17*
X182395000Y-115485000D03*
X183665000Y-115485000D03*
%TD*%
D23*
%TO.C,J17*%
X157105000Y-137485000D03*
D24*
X157105000Y-132405000D03*
X157105000Y-127325000D03*
%TD*%
D21*
%TO.C,K2*%
X109200000Y-52400000D03*
X111200000Y-58400000D03*
X123400000Y-58400000D03*
X123400000Y-46400000D03*
X111200000Y-46400000D03*
%TD*%
D25*
%TO.C,J1*%
X166361733Y-107465000D03*
D31*
X168901733Y-107465000D03*
X171441733Y-107465000D03*
X173981733Y-107465000D03*
X176521733Y-107465000D03*
X179061733Y-107465000D03*
X181601733Y-107465000D03*
X184141733Y-107465000D03*
%TD*%
D25*
%TO.C,J4*%
X180091733Y-59200000D03*
D31*
X177551733Y-59200000D03*
X175011733Y-59200000D03*
X172471733Y-59200000D03*
X169931733Y-59200000D03*
X167391733Y-59200000D03*
X164851733Y-59200000D03*
X162311733Y-59200000D03*
X159771733Y-59200000D03*
X157231733Y-59200000D03*
%TD*%
D25*
%TO.C,J2*%
X189226733Y-107465000D03*
D31*
X191766733Y-107465000D03*
X194306733Y-107465000D03*
X196846733Y-107465000D03*
X199386733Y-107465000D03*
X201926733Y-107465000D03*
%TD*%
D25*
%TO.C,J5*%
X201891733Y-59200000D03*
D31*
X199351733Y-59200000D03*
X196811733Y-59200000D03*
X194271733Y-59200000D03*
X191731733Y-59200000D03*
X189191733Y-59200000D03*
X186651733Y-59200000D03*
X184111733Y-59200000D03*
%TD*%
M02*
