%TF.GenerationSoftware,KiCad,Pcbnew,7.0.7*%
%TF.CreationDate,2025-08-02T13:59:43+07:00*%
%TF.ProjectId,uno-r4-shield-template,756e6f2d-7234-42d7-9368-69656c642d74,rev?*%
%TF.SameCoordinates,Original*%
%TF.FileFunction,Copper,L1,Top*%
%TF.FilePolarity,Positive*%
%FSLAX46Y46*%
G04 Gerber Fmt 4.6, Leading zero omitted, Abs format (unit mm)*
G04 Created by KiCad (PCBNEW 7.0.7) date 2025-08-02 13:59:43*
%MOMM*%
%LPD*%
G01*
G04 APERTURE LIST*
%TA.AperFunction,ComponentPad*%
%ADD10R,2.200000X2.200000*%
%TD*%
%TA.AperFunction,ComponentPad*%
%ADD11O,2.200000X2.200000*%
%TD*%
%TA.AperFunction,ComponentPad*%
%ADD12R,2.600000X2.600000*%
%TD*%
%TA.AperFunction,ComponentPad*%
%ADD13C,2.600000*%
%TD*%
%TA.AperFunction,ComponentPad*%
%ADD14C,1.600000*%
%TD*%
%TA.AperFunction,ComponentPad*%
%ADD15O,1.600000X1.600000*%
%TD*%
%TA.AperFunction,ComponentPad*%
%ADD16R,1.050000X1.500000*%
%TD*%
%TA.AperFunction,ComponentPad*%
%ADD17O,1.050000X1.500000*%
%TD*%
%TA.AperFunction,ComponentPad*%
%ADD18C,1.635000*%
%TD*%
%TA.AperFunction,ComponentPad*%
%ADD19R,2.000000X2.000000*%
%TD*%
%TA.AperFunction,ComponentPad*%
%ADD20C,2.000000*%
%TD*%
%TA.AperFunction,ComponentPad*%
%ADD21C,2.250000*%
%TD*%
%TA.AperFunction,ComponentPad*%
%ADD22R,1.600000X1.600000*%
%TD*%
%TA.AperFunction,ComponentPad*%
%ADD23R,4.000000X2.600000*%
%TD*%
%TA.AperFunction,ComponentPad*%
%ADD24O,4.000000X2.600000*%
%TD*%
%TA.AperFunction,ComponentPad*%
%ADD25R,1.700000X1.700000*%
%TD*%
%TA.AperFunction,SMDPad,CuDef*%
%ADD26R,1.000000X1.000000*%
%TD*%
%TA.AperFunction,ComponentPad*%
%ADD27R,1.800000X1.800000*%
%TD*%
%TA.AperFunction,ComponentPad*%
%ADD28C,1.800000*%
%TD*%
%TA.AperFunction,ComponentPad*%
%ADD29O,2.000000X5.000000*%
%TD*%
%TA.AperFunction,ComponentPad*%
%ADD30R,4.000000X4.000000*%
%TD*%
%TA.AperFunction,ComponentPad*%
%ADD31C,4.000000*%
%TD*%
%TA.AperFunction,ComponentPad*%
%ADD32O,1.700000X1.700000*%
%TD*%
%TA.AperFunction,ViaPad*%
%ADD33C,0.800000*%
%TD*%
%TA.AperFunction,Conductor*%
%ADD34C,1.000000*%
%TD*%
%TA.AperFunction,Conductor*%
%ADD35C,2.000000*%
%TD*%
%TA.AperFunction,Conductor*%
%ADD36C,2.600000*%
%TD*%
G04 APERTURE END LIST*
D10*
%TO.P,D4,1,K*%
%TO.N,+3.3V*%
X118060000Y-41900000D03*
D11*
%TO.P,D4,2,A*%
%TO.N,Net-(D4-A)*%
X107900000Y-41900000D03*
%TD*%
D12*
%TO.P,J9,1,Pin_1*%
%TO.N,Coin_Acceptor_VCC*%
X84869042Y-76340427D03*
D13*
%TO.P,J9,2,Pin_2*%
%TO.N,GND*%
X84869042Y-81420427D03*
%TD*%
D10*
%TO.P,D6,1,K*%
%TO.N,+3.3V*%
X197405000Y-115685000D03*
D11*
%TO.P,D6,2,A*%
%TO.N,Net-(D6-A)*%
X187245000Y-115685000D03*
%TD*%
D14*
%TO.P,R7,1*%
%TO.N,Net-(Q2-B)*%
X103200000Y-45360000D03*
D15*
%TO.P,R7,2*%
%TO.N,Net-(R7-Pad2)*%
X103200000Y-55520000D03*
%TD*%
D10*
%TO.P,D7,1,K*%
%TO.N,Coin_Acceptor_VCC*%
X105040000Y-76200000D03*
D11*
%TO.P,D7,2,A*%
%TO.N,GND*%
X115200000Y-76200000D03*
%TD*%
D16*
%TO.P,Q2,1,C*%
%TO.N,Net-(D4-A)*%
X101960000Y-41500000D03*
D17*
%TO.P,Q2,2,B*%
%TO.N,Net-(Q2-B)*%
X103230000Y-41500000D03*
%TO.P,Q2,3,E*%
%TO.N,GND*%
X104500000Y-41500000D03*
%TD*%
D18*
%TO.P,S1,1,1*%
%TO.N,Net-(GSM_Module1-Vcc)*%
X149180000Y-59300000D03*
%TO.P,S1,2,2*%
%TO.N,GSM_VCC*%
X146640000Y-59300000D03*
%TO.P,S1,3,3*%
%TO.N,unconnected-(S1-Pad3)*%
X144100000Y-59300000D03*
%TD*%
D14*
%TO.P,R2,1*%
%TO.N,Net-(GSM_Module1-RXD)*%
X158711733Y-93600000D03*
D15*
%TO.P,R2,2*%
%TO.N,GND*%
X168871733Y-93600000D03*
%TD*%
D12*
%TO.P,J6,1,Pin_1*%
%TO.N,Net-(J6-Pin_1)*%
X187500000Y-42100000D03*
D13*
%TO.P,J6,2,Pin_2*%
%TO.N,GND*%
X182420000Y-42100000D03*
%TD*%
D19*
%TO.P,C1,1*%
%TO.N,Net-(GSM_Module1-Vcc)*%
X169000000Y-75900000D03*
D20*
%TO.P,C1,2*%
%TO.N,GND*%
X164000000Y-75900000D03*
%TD*%
D14*
%TO.P,R5,1*%
%TO.N,Net-(R5-Pad1)*%
X97400000Y-65840000D03*
D15*
%TO.P,R5,2*%
%TO.N,Coin_Enable*%
X97400000Y-55680000D03*
%TD*%
D21*
%TO.P,K3,1,1*%
%TO.N,+12V*%
X188517500Y-126185000D03*
%TO.P,K3,2,2*%
%TO.N,+3.3V*%
X190517500Y-132185000D03*
%TO.P,K3,3,3*%
%TO.N,Pilot_Lamp*%
X202717500Y-132185000D03*
%TO.P,K3,4,4*%
%TO.N,unconnected-(K3-Pad4)*%
X202717500Y-120185000D03*
%TO.P,K3,5,5*%
%TO.N,Net-(D6-A)*%
X190517500Y-120185000D03*
%TD*%
D22*
%TO.P,U3,1*%
%TO.N,Net-(R5-Pad1)*%
X100725000Y-65700000D03*
D15*
%TO.P,U3,2*%
%TO.N,Net-(D2-A)*%
X103265000Y-65700000D03*
%TO.P,U3,3*%
%TO.N,Net-(R7-Pad2)*%
X103265000Y-58080000D03*
%TO.P,U3,4*%
%TO.N,+3.3V*%
X100725000Y-58080000D03*
%TD*%
D22*
%TO.P,U2,1*%
%TO.N,Net-(R4-Pad1)*%
X129160000Y-90300000D03*
D15*
%TO.P,U2,2*%
%TO.N,Net-(D1-A)*%
X131700000Y-90300000D03*
%TO.P,U2,3*%
%TO.N,Net-(R6-Pad2)*%
X131700000Y-82680000D03*
%TO.P,U2,4*%
%TO.N,+3.3V*%
X129160000Y-82680000D03*
%TD*%
D22*
%TO.P,U4,1*%
%TO.N,Net-(R8-Pad1)*%
X179885000Y-140005000D03*
D15*
%TO.P,U4,2*%
%TO.N,Net-(D5-A)*%
X182425000Y-140005000D03*
%TO.P,U4,3*%
%TO.N,Net-(R9-Pad2)*%
X182425000Y-132385000D03*
%TO.P,U4,4*%
%TO.N,+3.3V*%
X179885000Y-132385000D03*
%TD*%
D12*
%TO.P,J10,1,Pin_1*%
%TO.N,+5V*%
X217500000Y-91180000D03*
D13*
%TO.P,J10,2,Pin_2*%
%TO.N,GND*%
X217500000Y-86100000D03*
%TD*%
D14*
%TO.P,R1,1*%
%TO.N,D2*%
X168851733Y-88700000D03*
D15*
%TO.P,R1,2*%
%TO.N,Net-(GSM_Module1-RXD)*%
X158691733Y-88700000D03*
%TD*%
D12*
%TO.P,J20,1,Pin_1*%
%TO.N,Coin_Enable*%
X161380000Y-42200000D03*
D13*
%TO.P,J20,2,Pin_2*%
%TO.N,Green_LED*%
X156300000Y-42200000D03*
%TO.P,J20,3,Pin_3*%
%TO.N,GND*%
X151220000Y-42200000D03*
%TD*%
D23*
%TO.P,J12,1,Pin_1*%
%TO.N,Net-(J12-Pin_1)*%
X99205000Y-129925000D03*
D24*
%TO.P,J12,2,Pin_2*%
%TO.N,Net-(J12-Pin_2)*%
X99205000Y-135005000D03*
%TD*%
D12*
%TO.P,J7,1,Pin_1*%
%TO.N,+12V*%
X84869042Y-99240427D03*
D13*
%TO.P,J7,2,Pin_2*%
%TO.N,GND*%
X84869042Y-104320427D03*
%TD*%
D12*
%TO.P,J16,1,Pin_1*%
%TO.N,Net-(J12-Pin_1)*%
X83605000Y-129925000D03*
D13*
%TO.P,J16,2,Pin_2*%
%TO.N,Net-(J12-Pin_2)*%
X83605000Y-135005000D03*
%TD*%
D21*
%TO.P,K1,1,1*%
%TO.N,+4V*%
X137620000Y-76880000D03*
%TO.P,K1,2,2*%
%TO.N,+3.3V*%
X139620000Y-82880000D03*
%TO.P,K1,3,3*%
%TO.N,unconnected-(K1-Pad3)*%
X151820000Y-82880000D03*
%TO.P,K1,4,4*%
%TO.N,GSM_VCC*%
X151820000Y-70880000D03*
%TO.P,K1,5,5*%
%TO.N,Net-(D3-A)*%
X139620000Y-70880000D03*
%TD*%
D14*
%TO.P,R8,1*%
%TO.N,Net-(R8-Pad1)*%
X175925000Y-140065000D03*
D15*
%TO.P,R8,2*%
%TO.N,Net-(J17-Pin_2)*%
X175925000Y-129905000D03*
%TD*%
D25*
%TO.P,J19,1,Pin_1*%
%TO.N,Net-(J19-Pin_1)*%
X205000000Y-102200000D03*
%TD*%
D14*
%TO.P,R9,1*%
%TO.N,Net-(Q3-B)*%
X182425000Y-119205000D03*
D15*
%TO.P,R9,2*%
%TO.N,Net-(R9-Pad2)*%
X182425000Y-129365000D03*
%TD*%
D12*
%TO.P,J3,1,Pin_1*%
%TO.N,Net-(J19-Pin_1)*%
X200300000Y-42100000D03*
D13*
%TO.P,J3,2,Pin_2*%
%TO.N,GND*%
X195220000Y-42100000D03*
%TD*%
D12*
%TO.P,J14,1,Pin_1*%
%TO.N,Net-(J14-Pin_1)*%
X174400000Y-42105000D03*
D13*
%TO.P,J14,2,Pin_2*%
%TO.N,GND*%
X169320000Y-42105000D03*
%TD*%
D14*
%TO.P,R4,1*%
%TO.N,Net-(R4-Pad1)*%
X125445000Y-90500000D03*
D15*
%TO.P,R4,2*%
%TO.N,GSM_Reset*%
X125445000Y-80340000D03*
%TD*%
D26*
%TO.P,TP2,1,1*%
%TO.N,GND*%
X154900000Y-97600000D03*
%TD*%
D16*
%TO.P,Q1,1,C*%
%TO.N,Net-(D3-A)*%
X130405000Y-66140000D03*
D17*
%TO.P,Q1,2,B*%
%TO.N,Net-(Q1-B)*%
X131675000Y-66140000D03*
%TO.P,Q1,3,E*%
%TO.N,GND*%
X132945000Y-66140000D03*
%TD*%
D12*
%TO.P,J11,1,Pin_1*%
%TO.N,+3.3V*%
X217600000Y-78600000D03*
D13*
%TO.P,J11,2,Pin_2*%
%TO.N,GND*%
X217600000Y-73520000D03*
%TD*%
D27*
%TO.P,D2,1,K*%
%TO.N,GND*%
X109175000Y-64600000D03*
D28*
%TO.P,D2,2,A*%
%TO.N,Net-(D2-A)*%
X106635000Y-64600000D03*
%TD*%
D14*
%TO.P,R10,1*%
%TO.N,+3.3V*%
X171025000Y-140065000D03*
D15*
%TO.P,R10,2*%
%TO.N,Net-(J17-Pin_2)*%
X171025000Y-129905000D03*
%TD*%
D12*
%TO.P,J8,1,Pin_1*%
%TO.N,+12V*%
X84869042Y-87775427D03*
D13*
%TO.P,J8,2,Pin_2*%
%TO.N,GND*%
X84869042Y-92855427D03*
%TD*%
D14*
%TO.P,R12,1*%
%TO.N,Net-(J14-Pin_1)*%
X177260000Y-53200000D03*
D15*
%TO.P,R12,2*%
%TO.N,Green_LED*%
X167100000Y-53200000D03*
%TD*%
D12*
%TO.P,J15,1,Pin_1*%
%TO.N,Pilot_Lamp*%
X217725000Y-132065000D03*
D13*
%TO.P,J15,2,Pin_2*%
%TO.N,GND*%
X217725000Y-126985000D03*
%TD*%
D29*
%TO.P,GSM_Module1,1,Net*%
%TO.N,unconnected-(GSM_Module1-Net-Pad1)*%
X190991733Y-73000000D03*
%TO.P,GSM_Module1,2,Vcc*%
%TO.N,Net-(GSM_Module1-Vcc)*%
X188451733Y-73000000D03*
%TO.P,GSM_Module1,3,RST*%
%TO.N,unconnected-(GSM_Module1-RST-Pad3)*%
X185911733Y-73000000D03*
%TO.P,GSM_Module1,4,RXD*%
%TO.N,Net-(GSM_Module1-RXD)*%
X183371733Y-73000000D03*
%TO.P,GSM_Module1,5,TXD*%
%TO.N,D3~*%
X180831733Y-73000000D03*
%TO.P,GSM_Module1,6,GND*%
%TO.N,GND1*%
X178291733Y-73000000D03*
%TO.P,GSM_Module1,7,RING*%
%TO.N,unconnected-(GSM_Module1-RING-Pad7)*%
X188691733Y-94500000D03*
%TO.P,GSM_Module1,8,DTR*%
%TO.N,unconnected-(GSM_Module1-DTR-Pad8)*%
X186151733Y-94500000D03*
%TO.P,GSM_Module1,9,MIC+*%
%TO.N,unconnected-(GSM_Module1-MIC+-Pad9)*%
X183611733Y-94500000D03*
%TO.P,GSM_Module1,10,MIC-*%
%TO.N,unconnected-(GSM_Module1-MIC--Pad10)*%
X181071733Y-94500000D03*
%TO.P,GSM_Module1,11,SPKR+*%
%TO.N,unconnected-(GSM_Module1-SPKR+-Pad11)*%
X178531733Y-94500000D03*
%TO.P,GSM_Module1,12,SPKR-*%
%TO.N,unconnected-(GSM_Module1-SPKR--Pad12)*%
X175991733Y-94500000D03*
%TD*%
D10*
%TO.P,D3,1,K*%
%TO.N,+3.3V*%
X146600000Y-66480000D03*
D11*
%TO.P,D3,2,A*%
%TO.N,Net-(D3-A)*%
X136440000Y-66480000D03*
%TD*%
D27*
%TO.P,D5,1,K*%
%TO.N,GND*%
X188625000Y-138785000D03*
D28*
%TO.P,D5,2,A*%
%TO.N,Net-(D5-A)*%
X186085000Y-138785000D03*
%TD*%
D30*
%TO.P,U1,1,Vin*%
%TO.N,+12V*%
X105180000Y-97610000D03*
D31*
%TO.P,U1,2,GND*%
%TO.N,GND*%
X105180000Y-115390000D03*
%TO.P,U1,3,GND*%
X145820000Y-115390000D03*
%TO.P,U1,4,Vout*%
%TO.N,+4V*%
X145820000Y-97610000D03*
%TD*%
D27*
%TO.P,D1,1,K*%
%TO.N,GND*%
X137700000Y-89180000D03*
D28*
%TO.P,D1,2,A*%
%TO.N,Net-(D1-A)*%
X135160000Y-89180000D03*
%TD*%
D14*
%TO.P,R6,1*%
%TO.N,Net-(Q1-B)*%
X131700000Y-69840000D03*
D15*
%TO.P,R6,2*%
%TO.N,Net-(R6-Pad2)*%
X131700000Y-80000000D03*
%TD*%
D26*
%TO.P,TP1,1,1*%
%TO.N,+4V*%
X150900000Y-97600000D03*
%TD*%
D14*
%TO.P,R11,1*%
%TO.N,Net-(J6-Pin_1)*%
X190215000Y-53105000D03*
D15*
%TO.P,R11,2*%
%TO.N,Arduino_LED*%
X180055000Y-53105000D03*
%TD*%
D12*
%TO.P,J13,1,Pin_1*%
%TO.N,GND*%
X84869042Y-64840427D03*
D13*
%TO.P,J13,2,Pin_2*%
X84869042Y-69920427D03*
%TD*%
D16*
%TO.P,Q3,1,C*%
%TO.N,Net-(D6-A)*%
X181125000Y-115485000D03*
D17*
%TO.P,Q3,2,B*%
%TO.N,Net-(Q3-B)*%
X182395000Y-115485000D03*
%TO.P,Q3,3,E*%
%TO.N,GND*%
X183665000Y-115485000D03*
%TD*%
D23*
%TO.P,J17,1,Pin_1*%
%TO.N,GND*%
X157105000Y-137485000D03*
D24*
%TO.P,J17,2,Pin_2*%
%TO.N,Net-(J17-Pin_2)*%
X157105000Y-132405000D03*
%TO.P,J17,3,Pin_3*%
%TO.N,+3.3V*%
X157105000Y-127325000D03*
%TD*%
D21*
%TO.P,K2,1,1*%
%TO.N,+12V*%
X109200000Y-52400000D03*
%TO.P,K2,2,2*%
%TO.N,+3.3V*%
X111200000Y-58400000D03*
%TO.P,K2,3,3*%
%TO.N,Coin_Acceptor_VCC*%
X123400000Y-58400000D03*
%TO.P,K2,4,4*%
%TO.N,unconnected-(K2-Pad4)*%
X123400000Y-46400000D03*
%TO.P,K2,5,5*%
%TO.N,Net-(D4-A)*%
X111200000Y-46400000D03*
%TD*%
D25*
%TO.P,J1,1,Pin_1*%
%TO.N,BOOT*%
X166361733Y-107465000D03*
D32*
%TO.P,J1,2,Pin_2*%
%TO.N,IOREF*%
X168901733Y-107465000D03*
%TO.P,J1,3,Pin_3*%
%TO.N,RESET*%
X171441733Y-107465000D03*
%TO.P,J1,4,Pin_4*%
%TO.N,+3.3V*%
X173981733Y-107465000D03*
%TO.P,J1,5,Pin_5*%
%TO.N,+5V*%
X176521733Y-107465000D03*
%TO.P,J1,6,Pin_6*%
%TO.N,GND*%
X179061733Y-107465000D03*
%TO.P,J1,7,Pin_7*%
X181601733Y-107465000D03*
%TO.P,J1,8,Pin_8*%
%TO.N,+VSW*%
X184141733Y-107465000D03*
%TD*%
D25*
%TO.P,J4,1,Pin_1*%
%TO.N,Arduino_LED*%
X180091733Y-59200000D03*
D32*
%TO.P,J4,2,Pin_2*%
%TO.N,D9~*%
X177551733Y-59200000D03*
%TO.P,J4,3,Pin_3*%
%TO.N,D10~*%
X175011733Y-59200000D03*
%TO.P,J4,4,Pin_4*%
%TO.N,D11~*%
X172471733Y-59200000D03*
%TO.P,J4,5,Pin_5*%
%TO.N,D12*%
X169931733Y-59200000D03*
%TO.P,J4,6,Pin_6*%
%TO.N,D13*%
X167391733Y-59200000D03*
%TO.P,J4,7,Pin_7*%
%TO.N,GND1*%
X164851733Y-59200000D03*
%TO.P,J4,8,Pin_8*%
%TO.N,AREF*%
X162311733Y-59200000D03*
%TO.P,J4,9,Pin_9*%
%TO.N,D18*%
X159771733Y-59200000D03*
%TO.P,J4,10,Pin_10*%
%TO.N,D19*%
X157231733Y-59200000D03*
%TD*%
D25*
%TO.P,J2,1,Pin_1*%
%TO.N,A0{slash}D14*%
X189226733Y-107465000D03*
D32*
%TO.P,J2,2,Pin_2*%
%TO.N,A1{slash}D15*%
X191766733Y-107465000D03*
%TO.P,J2,3,Pin_3*%
%TO.N,A2{slash}D16*%
X194306733Y-107465000D03*
%TO.P,J2,4,Pin_4*%
%TO.N,A3{slash}D17*%
X196846733Y-107465000D03*
%TO.P,J2,5,Pin_5*%
%TO.N,A4{slash}D18*%
X199386733Y-107465000D03*
%TO.P,J2,6,Pin_6*%
%TO.N,A5{slash}D19*%
X201926733Y-107465000D03*
%TD*%
D25*
%TO.P,J5,1,Pin_1*%
%TO.N,D0*%
X201891733Y-59200000D03*
D32*
%TO.P,J5,2,Pin_2*%
%TO.N,D1*%
X199351733Y-59200000D03*
%TO.P,J5,3,Pin_3*%
%TO.N,D2*%
X196811733Y-59200000D03*
%TO.P,J5,4,Pin_4*%
%TO.N,D3~*%
X194271733Y-59200000D03*
%TO.P,J5,5,Pin_5*%
%TO.N,D4*%
X191731733Y-59200000D03*
%TO.P,J5,6,Pin_6*%
%TO.N,D5~*%
X189191733Y-59200000D03*
%TO.P,J5,7,Pin_7*%
%TO.N,D6~*%
X186651733Y-59200000D03*
%TO.P,J5,8,Pin_8*%
%TO.N,GSM_Reset*%
X184111733Y-59200000D03*
%TD*%
D33*
%TO.N,GND*%
X157500000Y-98500000D03*
%TD*%
D34*
%TO.N,+3.3V*%
X179885000Y-129885000D02*
X179885000Y-132385000D01*
X157105000Y-127325000D02*
X177325000Y-127325000D01*
X177325000Y-127325000D02*
X179885000Y-129885000D01*
%TO.N,+12V*%
X154200000Y-103300000D02*
X120100000Y-103300000D01*
X120100000Y-103300000D02*
X114410000Y-97610000D01*
X166000000Y-111500000D02*
X162400000Y-111500000D01*
X114410000Y-97610000D02*
X105180000Y-97610000D01*
X188517500Y-126185000D02*
X180685000Y-126185000D01*
X180685000Y-126185000D02*
X166000000Y-111500000D01*
X162400000Y-111500000D02*
X154200000Y-103300000D01*
%TO.N,+5V*%
X204200000Y-110700000D02*
X217500000Y-97400000D01*
X176521733Y-108721733D02*
X178500000Y-110700000D01*
X178500000Y-110700000D02*
X204200000Y-110700000D01*
X217500000Y-97400000D02*
X217500000Y-91180000D01*
X176521733Y-107465000D02*
X176521733Y-108721733D01*
D35*
%TO.N,GND*%
X171991733Y-101900000D02*
X169291733Y-99200000D01*
X171991733Y-101900000D02*
X175691733Y-101900000D01*
X175691733Y-101900000D02*
X179061733Y-105270000D01*
D34*
X156600000Y-97600000D02*
X157500000Y-98500000D01*
D35*
X169291733Y-99200000D02*
X168871733Y-98780000D01*
X168871733Y-98780000D02*
X168871733Y-93600000D01*
X179061733Y-107465000D02*
X181601733Y-107465000D01*
X179061733Y-105270000D02*
X179061733Y-107465000D01*
D34*
X154900000Y-97600000D02*
X156600000Y-97600000D01*
%TO.N,Net-(D1-A)*%
X131700000Y-90300000D02*
X134040000Y-90300000D01*
X134040000Y-90300000D02*
X135160000Y-89180000D01*
D35*
%TO.N,D2*%
X191991733Y-88700000D02*
X168851733Y-88700000D01*
X196811733Y-83880000D02*
X191991733Y-88700000D01*
X196811733Y-59200000D02*
X196811733Y-83880000D01*
%TO.N,D3~*%
X184391733Y-65600000D02*
X191991733Y-65600000D01*
X180831733Y-69160000D02*
X184391733Y-65600000D01*
X180831733Y-73000000D02*
X180831733Y-69160000D01*
X194271733Y-63320000D02*
X194271733Y-59200000D01*
X191991733Y-65600000D02*
X194271733Y-63320000D01*
D34*
%TO.N,Net-(D2-A)*%
X106635000Y-64600000D02*
X104365000Y-64600000D01*
X104365000Y-64600000D02*
X103265000Y-65700000D01*
D35*
%TO.N,Net-(GSM_Module1-Vcc)*%
X188451733Y-76840000D02*
X185491733Y-79800000D01*
X172900000Y-79800000D02*
X169000000Y-75900000D01*
D34*
X149180000Y-59300000D02*
X152400000Y-59300000D01*
D35*
X188451733Y-73000000D02*
X188451733Y-76840000D01*
D34*
X152400000Y-59300000D02*
X169000000Y-75900000D01*
D35*
X185491733Y-79800000D02*
X172900000Y-79800000D01*
%TO.N,Net-(GSM_Module1-RXD)*%
X193991733Y-70200000D02*
X193991733Y-80500000D01*
X185191733Y-68400000D02*
X192191733Y-68400000D01*
X183371733Y-73000000D02*
X183371733Y-70220000D01*
X158711733Y-88720000D02*
X158691733Y-88700000D01*
X193991733Y-80500000D02*
X189491733Y-85000000D01*
X183371733Y-70220000D02*
X185191733Y-68400000D01*
X167491733Y-85000000D02*
X163791733Y-88700000D01*
X158711733Y-93600000D02*
X158711733Y-88720000D01*
X163791733Y-88700000D02*
X158691733Y-88700000D01*
X192191733Y-68400000D02*
X193991733Y-70200000D01*
X189491733Y-85000000D02*
X167491733Y-85000000D01*
D34*
%TO.N,+3.3V*%
X118060000Y-51540000D02*
X118060000Y-41900000D01*
X139620000Y-82880000D02*
X150240000Y-93500000D01*
X197405000Y-115685000D02*
X201815000Y-115685000D01*
X177205000Y-132385000D02*
X179885000Y-132385000D01*
X179885000Y-133365000D02*
X181205000Y-134685000D01*
X157500000Y-96300000D02*
X154700000Y-93500000D01*
X111200000Y-58400000D02*
X118060000Y-51540000D01*
X129160000Y-82680000D02*
X129160000Y-78920000D01*
X173981733Y-107465000D02*
X173981733Y-116281733D01*
X220300000Y-97200000D02*
X220300000Y-81300000D01*
X101900000Y-53800000D02*
X100725000Y-54975000D01*
X146600000Y-66480000D02*
X146600000Y-75900000D01*
X197405000Y-115685000D02*
X197405000Y-122900000D01*
X146600000Y-75900000D02*
X139620000Y-82880000D01*
X106600000Y-53800000D02*
X101900000Y-53800000D01*
X181205000Y-134685000D02*
X188017500Y-134685000D01*
X197405000Y-125297500D02*
X190517500Y-132185000D01*
X171025000Y-140065000D02*
X171025000Y-138565000D01*
X129160000Y-78920000D02*
X130500000Y-77580000D01*
X188017500Y-134685000D02*
X190517500Y-132185000D01*
X220300000Y-81300000D02*
X217600000Y-78600000D01*
X130500000Y-77580000D02*
X134300000Y-77580000D01*
X135000000Y-78280000D02*
X135020000Y-78280000D01*
X100725000Y-54975000D02*
X100725000Y-58080000D01*
X111200000Y-58400000D02*
X106600000Y-53800000D01*
X162816733Y-96300000D02*
X157500000Y-96300000D01*
X150240000Y-93500000D02*
X154700000Y-93500000D01*
X179885000Y-132385000D02*
X179885000Y-133365000D01*
X180600000Y-122900000D02*
X197405000Y-122900000D01*
X171025000Y-138565000D02*
X177205000Y-132385000D01*
X197405000Y-122900000D02*
X197405000Y-125297500D01*
X201815000Y-115685000D02*
X220300000Y-97200000D01*
X173981733Y-107465000D02*
X162816733Y-96300000D01*
X134300000Y-77580000D02*
X135000000Y-78280000D01*
X135020000Y-78280000D02*
X139620000Y-82880000D01*
X173981733Y-116281733D02*
X180600000Y-122900000D01*
%TO.N,Net-(J12-Pin_1)*%
X83605000Y-129925000D02*
X99205000Y-129925000D01*
D35*
%TO.N,GND1*%
X168291733Y-69400000D02*
X164851733Y-65960000D01*
X171891733Y-73000000D02*
X168291733Y-69400000D01*
X178291733Y-73000000D02*
X171891733Y-73000000D01*
X164851733Y-65960000D02*
X164851733Y-59200000D01*
D34*
%TO.N,Net-(D3-A)*%
X135545000Y-63640000D02*
X136445000Y-64540000D01*
X136440000Y-64545000D02*
X136440000Y-66480000D01*
X130405000Y-66140000D02*
X130405000Y-64390000D01*
X136440000Y-67700000D02*
X139620000Y-70880000D01*
X136445000Y-64540000D02*
X136440000Y-64545000D01*
X136440000Y-66480000D02*
X136440000Y-67700000D01*
X131155000Y-63640000D02*
X135545000Y-63640000D01*
X130405000Y-64390000D02*
X131155000Y-63640000D01*
%TO.N,Net-(D4-A)*%
X107900000Y-40200000D02*
X107100000Y-39400000D01*
X107900000Y-43100000D02*
X111200000Y-46400000D01*
X101960000Y-40440000D02*
X101960000Y-41500000D01*
X107100000Y-39400000D02*
X103000000Y-39400000D01*
X107900000Y-41900000D02*
X107900000Y-40200000D01*
X103000000Y-39400000D02*
X101960000Y-40440000D01*
X107900000Y-41900000D02*
X107900000Y-43100000D01*
%TO.N,Net-(D5-A)*%
X182425000Y-140005000D02*
X184865000Y-140005000D01*
X184865000Y-140005000D02*
X186085000Y-138785000D01*
%TO.N,Net-(D6-A)*%
X187245000Y-115685000D02*
X187245000Y-116912500D01*
X187245000Y-116912500D02*
X190517500Y-120185000D01*
X186305000Y-112985000D02*
X187245000Y-113925000D01*
X182205000Y-112985000D02*
X186305000Y-112985000D01*
X187245000Y-113925000D02*
X187245000Y-115685000D01*
X181125000Y-115485000D02*
X181125000Y-114065000D01*
X181125000Y-114065000D02*
X182205000Y-112985000D01*
%TO.N,GSM_Reset*%
X180911733Y-56000000D02*
X133000000Y-56000000D01*
X184111733Y-59200000D02*
X180911733Y-56000000D01*
X125445000Y-63555000D02*
X125445000Y-80340000D01*
X133000000Y-56000000D02*
X125445000Y-63555000D01*
%TO.N,Net-(J6-Pin_1)*%
X190215000Y-53105000D02*
X190215000Y-44915000D01*
X190215000Y-44915000D02*
X187500000Y-42200000D01*
D36*
%TO.N,+12V*%
X86875427Y-87775427D02*
X84869042Y-87775427D01*
D34*
X105180000Y-80820000D02*
X105180000Y-97610000D01*
D36*
X89300000Y-99240427D02*
X89300000Y-90200000D01*
D34*
X116700000Y-39300000D02*
X126500000Y-39300000D01*
D36*
X89300000Y-90200000D02*
X86875427Y-87775427D01*
D34*
X109200000Y-52400000D02*
X112200000Y-52400000D01*
D36*
X89300000Y-99240427D02*
X103549573Y-99240427D01*
D34*
X114500000Y-50100000D02*
X114500000Y-41500000D01*
X114500000Y-41500000D02*
X116700000Y-39300000D01*
X128500000Y-57500000D02*
X105180000Y-80820000D01*
X112200000Y-52400000D02*
X114500000Y-50100000D01*
D36*
X84869042Y-99240427D02*
X89300000Y-99240427D01*
X103549573Y-99240427D02*
X105180000Y-97610000D01*
D34*
X126500000Y-39300000D02*
X128500000Y-41300000D01*
X128500000Y-41300000D02*
X128500000Y-57500000D01*
D36*
%TO.N,Coin_Acceptor_VCC*%
X105459573Y-76340427D02*
X123400000Y-58400000D01*
X84869042Y-76340427D02*
X105459573Y-76340427D01*
D34*
%TO.N,Net-(J12-Pin_2)*%
X83605000Y-135005000D02*
X99205000Y-135005000D01*
%TO.N,Net-(J14-Pin_1)*%
X177260000Y-44965000D02*
X174400000Y-42105000D01*
X177260000Y-53200000D02*
X177260000Y-44965000D01*
%TO.N,Pilot_Lamp*%
X202717500Y-132185000D02*
X217605000Y-132185000D01*
X217605000Y-132185000D02*
X217725000Y-132065000D01*
%TO.N,Net-(J17-Pin_2)*%
X171025000Y-129905000D02*
X175925000Y-129905000D01*
X168525000Y-132405000D02*
X171025000Y-129905000D01*
X157105000Y-132405000D02*
X168525000Y-132405000D01*
%TO.N,Coin_Enable*%
X161380000Y-41680000D02*
X157400000Y-37700000D01*
X97400000Y-41500000D02*
X97400000Y-55680000D01*
X101200000Y-37700000D02*
X97400000Y-41500000D01*
X157400000Y-37700000D02*
X101200000Y-37700000D01*
X161380000Y-42200000D02*
X161380000Y-41680000D01*
%TO.N,+4V*%
X127700000Y-85500000D02*
X139300000Y-85500000D01*
X145820000Y-97610000D02*
X150890000Y-97610000D01*
X127500000Y-77600000D02*
X127500000Y-81500000D01*
X130300000Y-74800000D02*
X127500000Y-77600000D01*
X135540000Y-74800000D02*
X130300000Y-74800000D01*
X137620000Y-76880000D02*
X135540000Y-74800000D01*
X145820000Y-92020000D02*
X145820000Y-97610000D01*
X126500000Y-82500000D02*
X126500000Y-84300000D01*
X126500000Y-84300000D02*
X127700000Y-85500000D01*
X139300000Y-85500000D02*
X145820000Y-92020000D01*
X150890000Y-97610000D02*
X150900000Y-97600000D01*
X127500000Y-81500000D02*
X126500000Y-82500000D01*
%TO.N,GSM_VCC*%
X151820000Y-64480000D02*
X151820000Y-70880000D01*
X146640000Y-59300000D02*
X151820000Y-64480000D01*
%TO.N,Net-(Q1-B)*%
X131675000Y-66140000D02*
X131675000Y-69815000D01*
X131675000Y-69815000D02*
X131700000Y-69840000D01*
%TO.N,Net-(Q2-B)*%
X103200000Y-45360000D02*
X103200000Y-41830000D01*
%TO.N,Net-(Q3-B)*%
X182395000Y-115485000D02*
X182395000Y-119175000D01*
X182395000Y-119175000D02*
X182425000Y-119205000D01*
%TO.N,Net-(R4-Pad1)*%
X128940000Y-90520000D02*
X129160000Y-90300000D01*
X125900000Y-90520000D02*
X128940000Y-90520000D01*
%TO.N,Net-(R5-Pad1)*%
X97540000Y-65700000D02*
X97400000Y-65840000D01*
X100725000Y-65700000D02*
X97540000Y-65700000D01*
%TO.N,Net-(R6-Pad2)*%
X131700000Y-79960000D02*
X131700000Y-82680000D01*
%TO.N,Net-(R7-Pad2)*%
X103200000Y-55520000D02*
X103200000Y-58015000D01*
X103200000Y-58015000D02*
X103265000Y-58080000D01*
%TO.N,Net-(R8-Pad1)*%
X179825000Y-140065000D02*
X179885000Y-140005000D01*
X175925000Y-140065000D02*
X179825000Y-140065000D01*
%TO.N,Net-(R9-Pad2)*%
X182425000Y-129365000D02*
X182425000Y-132385000D01*
%TO.N,Green_LED*%
X156300000Y-42200000D02*
X167100000Y-53000000D01*
X167100000Y-53000000D02*
X167100000Y-53200000D01*
%TO.N,Net-(J19-Pin_1)*%
X200300000Y-50100000D02*
X200300000Y-42300000D01*
X205000000Y-54800000D02*
X200300000Y-50100000D01*
X205000000Y-102200000D02*
X205000000Y-54800000D01*
%TD*%
M02*
